<svg viewBox="0 0 24 24" fill="none" xmlns="http://www.w3.org/2000/svg">
<path d="M3 20.2499C2.80109 20.2499 2.61032 20.329 2.46967 20.4696C2.32902 20.6103 2.25 20.801 2.25 20.9999C2.25 21.1989 2.32902 21.3896 2.46967 21.5303C2.61032 21.6709 2.80109 21.7499 3 21.7499V20.2499ZM21 21.7499C21.1989 21.7499 21.3897 21.6709 21.5303 21.5303C21.671 21.3896 21.75 21.1989 21.75 20.9999C21.75 20.801 21.671 20.6103 21.5303 20.4696C21.3897 20.329 21.1989 20.2499 21 20.2499V21.7499ZM14.534 5.31195C14.534 5.11303 14.455 4.92227 14.3143 4.78162C14.1737 4.64096 13.9829 4.56195 13.784 4.56195C13.5851 4.56195 13.3943 4.64096 13.2537 4.78162C13.113 4.92227 13.034 5.11303 13.034 5.31195H14.534ZM18.688 10.9659C18.8869 10.9659 19.0777 10.8869 19.2183 10.7463C19.359 10.6056 19.438 10.4149 19.438 10.2159C19.438 10.017 19.359 9.82627 19.2183 9.68562C19.0777 9.54496 18.8869 9.46595 18.688 9.46595V10.9659ZM3 21.7499H21V20.2499H3V21.7499ZM18.158 4.20695L19.792 5.84195L20.853 4.78195L19.218 3.14695L18.158 4.20695ZM19.792 8.05095L11.53 16.3139L12.59 17.3739L20.853 9.11095L19.792 8.05095ZM7.686 12.4699L15.949 4.20695L14.889 3.14595L6.626 11.4099L7.686 12.4689V12.4699ZM10.646 16.7539L7.214 17.2439L7.426 18.7289L10.858 18.2399L10.646 16.7539ZM6.754 16.7849L7.244 13.3529L5.76 13.1409L5.27 16.5729L6.754 16.7849ZM7.214 17.2459C7.15149 17.255 7.08773 17.2483 7.02779 17.2284C6.96785 17.2085 6.91338 17.1749 6.86872 17.1302C6.82406 17.0856 6.79043 17.0311 6.77052 16.9712C6.7506 16.9112 6.74495 16.8475 6.754 16.7849L5.269 16.5739C5.2272 16.8669 5.25418 17.1646 5.34782 17.4453C5.44145 17.726 5.59916 17.981 5.80846 18.1902C6.01775 18.3994 6.27288 18.557 6.55364 18.6505C6.8344 18.744 7.13307 18.7709 7.426 18.7289L7.214 17.2459ZM6.626 11.4099C6.15757 11.8784 5.8537 12.4851 5.76 13.1409L7.244 13.3529C7.292 13.0179 7.448 12.7079 7.686 12.4689L6.626 11.4099ZM11.53 16.3139C11.2908 16.5527 10.9806 16.7065 10.646 16.7539L10.858 18.2399C11.5138 18.1462 12.1215 17.8414 12.59 17.3729L11.53 16.3139ZM19.793 5.84095C20.403 6.45095 20.403 7.43995 19.793 8.04995L20.853 9.10995C21.4271 8.53572 21.7497 7.75696 21.7497 6.94495C21.7497 6.13293 21.4271 5.35417 20.853 4.77995L19.793 5.84095ZM19.219 3.14595C18.6448 2.57181 17.866 2.24927 17.054 2.24927C16.242 2.24927 15.4632 2.57181 14.889 3.14595L15.949 4.20695C16.559 3.59695 17.549 3.59695 18.158 4.20695L19.219 3.14595ZM13.784 5.31095L13.034 5.31195V5.32795C13.0346 5.36332 13.0363 5.39867 13.039 5.43395C13.0453 5.52228 13.055 5.61034 13.068 5.69795C13.098 5.91595 13.159 6.21595 13.278 6.56995C13.514 7.27995 13.98 8.20095 14.888 9.10995L15.949 8.04995C15.224 7.32395 14.872 6.60995 14.7 6.09495C14.6326 5.89642 14.5831 5.69228 14.552 5.48495C14.5449 5.43515 14.5396 5.38512 14.536 5.33495L14.534 5.30495V5.30995L13.784 5.31095ZM14.889 9.11095C15.798 10.0189 16.719 10.4849 17.429 10.7209C17.783 10.8399 18.083 10.9009 18.301 10.9309C18.4237 10.9485 18.5472 10.9595 18.671 10.9639H18.687L18.688 10.2139L18.689 9.46395H18.694H18.664C18.6138 9.46012 18.5638 9.45445 18.514 9.44695C18.374 9.42695 18.163 9.38495 17.904 9.29895C17.388 9.12695 16.675 8.77495 15.949 8.04895L14.889 9.10995V9.11095Z" fill="black"/>
</svg>
