<svg width="50" height="50" viewBox="0 0 50 50" fill="none" xmlns="http://www.w3.org/2000/svg">
<g clip-path="url(#clip0_17_134)">
<path d="M21.2902 9.50345L21.2907 9.50295C23.8382 6.95544 27.2934 5.52426 30.8961 5.52426C34.4988 5.52426 37.954 6.95544 40.5015 9.50295C43.049 12.0505 44.4802 15.5056 44.4802 19.1083C44.4802 22.7108 43.0492 26.1658 40.502 28.7132C40.5019 28.7134 40.5017 28.7136 40.5015 28.7137L39.0275 30.1856C38.6034 30.6091 37.9163 30.6087 37.4928 30.1845C37.0695 29.7606 37.0697 29.0739 37.4933 28.6503L38.9626 27.181C38.9632 27.1804 38.9638 27.1798 38.9644 27.1793C40.0313 26.1212 40.8789 24.8629 41.4585 23.4765C42.0384 22.0894 42.3386 20.6014 42.3419 19.098C42.3452 17.5945 42.0515 16.1052 41.4777 14.7155C40.9038 13.3259 40.0612 12.0633 38.9981 11.0002C37.9349 9.93704 36.6723 9.09438 35.2827 8.52055C33.893 7.94672 32.4037 7.65302 30.9003 7.65632C29.3968 7.65961 27.9088 7.95983 26.5217 8.53974C25.1353 9.11934 23.877 9.96693 22.8189 11.0339C22.8183 11.0345 22.8177 11.035 22.8172 11.0356L21.3463 12.5075C20.9237 12.9304 20.2382 12.9307 19.8152 12.508C19.3919 12.085 19.3921 11.3989 19.8155 10.9761L21.2902 9.50345ZM28.7122 40.4968L28.7119 40.4971C26.1644 43.0446 22.7093 44.4757 19.1065 44.4757C15.5038 44.4757 12.0487 43.0446 9.50115 40.4971C6.95364 37.9496 5.52246 34.4944 5.52246 30.8917C5.52246 27.2891 6.95354 23.834 9.5009 21.2865C9.50098 21.2864 9.50106 21.2864 9.50115 21.2863L10.9736 19.8149C11.3975 19.3913 12.0846 19.3917 12.508 19.8157C12.9312 20.2395 12.931 20.926 12.5075 21.3494L11.038 22.819C11.0374 22.8195 11.0369 22.82 11.0364 22.8205C9.96937 23.8786 9.12173 25.137 8.5421 26.5235C7.96219 27.9106 7.66197 29.3986 7.65868 30.9021C7.65539 32.4055 7.94909 33.8948 8.52292 35.2845C9.09675 36.6741 9.93941 37.9367 11.0025 38.9999C12.0656 40.063 13.3283 40.9056 14.7179 41.4795C16.1076 42.0533 17.5969 42.347 19.1003 42.3437C20.6038 42.3404 22.0918 42.0402 23.4789 41.4603C24.8654 40.8806 26.1237 40.033 27.1818 38.966C27.1824 38.9655 27.1829 38.9649 27.1834 38.9644L28.6545 37.4933C29.0771 37.0707 29.7622 37.0705 30.1851 37.4928C30.6085 37.9156 30.6086 38.6017 30.1854 39.0247L28.7122 40.4968ZM30.1252 18.3414C30.5486 17.9179 31.2353 17.9179 31.6588 18.3414C32.0823 18.7649 32.0822 19.4516 31.6587 19.8751L19.8745 31.6576C19.4514 32.0807 18.7654 32.0808 18.3421 31.6578C17.9186 31.2346 17.9185 30.5481 18.3418 30.1248L30.1252 18.3414Z" stroke="#3257A6" stroke-width="2"/>
</g>
<defs>
<clipPath id="clip0_17_134">
<rect width="50" height="50" fill="white"/>
</clipPath>
</defs>
</svg>
