<svg viewBox="0 0 24 24" fill="none" xmlns="http://www.w3.org/2000/svg">
<path fill-rule="evenodd" clip-rule="evenodd" d="M9.69941 3.51908C10.5614 1.48908 13.4384 1.48908 14.3004 3.51908L15.8584 7.18508L19.7064 7.50708C21.8834 7.69008 22.7964 10.3811 21.1774 11.8501L18.2354 14.5211L19.1984 18.9571C19.6854 21.1981 17.1484 22.8571 15.2904 21.5131L12.0004 19.1341L8.70841 21.5141C6.85041 22.8571 4.31441 21.1981 4.80041 18.9571L5.76441 14.5211L2.82141 11.8501C1.20341 10.3811 2.11541 7.69008 4.29241 7.50708L8.14141 7.18508L9.69841 3.52008L9.69941 3.51908ZM12.4594 4.30108C12.421 4.21089 12.3569 4.13398 12.2751 4.07992C12.1933 4.02586 12.0974 3.99704 11.9994 3.99704C11.9014 3.99704 11.8055 4.02586 11.7237 4.07992C11.6419 4.13398 11.5778 4.21089 11.5394 4.30108L9.86341 8.24508C9.75664 8.4963 9.58334 8.71361 9.36219 8.87362C9.14104 9.03362 8.88042 9.13025 8.60841 9.15308L4.45941 9.50008C4.36227 9.50817 4.26962 9.54448 4.19284 9.60454C4.11607 9.6646 4.05852 9.74579 4.02729 9.83812C3.99605 9.93045 3.99248 10.0299 4.01702 10.1242C4.04156 10.2186 4.09314 10.3037 4.16541 10.3691L7.32241 13.2341C7.5175 13.4113 7.66245 13.6368 7.74268 13.8878C7.82291 14.1388 7.83558 14.4066 7.77941 14.6641L6.75541 19.3801C6.73387 19.479 6.74283 19.582 6.78111 19.6757C6.81939 19.7694 6.88519 19.8492 6.96982 19.9047C7.05444 19.9602 7.15391 19.9887 7.25507 19.9864C7.35624 19.9842 7.45434 19.9513 7.53641 19.8921L11.1204 17.3011C11.3762 17.1161 11.6838 17.0165 11.9994 17.0165C12.315 17.0165 12.6226 17.1161 12.8784 17.3011L16.4624 19.8911C16.5443 19.95 16.6422 19.9828 16.7431 19.985C16.844 19.9873 16.9432 19.959 17.0277 19.9038C17.1123 19.8486 17.1781 19.7692 17.2166 19.6759C17.2551 19.5826 17.2644 19.4798 17.2434 19.3811L16.2194 14.6621C16.1636 14.4046 16.1765 14.137 16.2569 13.8862C16.3373 13.6353 16.4823 13.4101 16.6774 13.2331L19.8334 10.3681C19.9057 10.3027 19.9573 10.2176 19.9818 10.1232C20.0063 10.0289 20.0028 9.92945 19.9715 9.83712C19.9403 9.74478 19.8828 9.6636 19.806 9.60354C19.7292 9.54348 19.6365 9.50717 19.5394 9.49908L15.3904 9.15208C15.1184 9.12925 14.8578 9.03262 14.6366 8.87262C14.4155 8.71261 14.2422 8.4953 14.1354 8.24408L12.4594 4.30108Z" fill="black"/>
</svg>
